<svg width="40" height="39" viewBox="0 0 40 39" fill="none" xmlns="http://www.w3.org/2000/svg">
<path fill-rule="evenodd" clip-rule="evenodd" d="M23.4022 21.1935C21.4498 21.1935 19.867 19.5947 19.867 17.6226C19.867 15.6504 21.4498 14.0511 23.4022 14.0511C23.6419 14.0511 23.8758 14.0752 24.1018 14.121C24.0044 14.3493 23.923 14.5749 23.8578 14.7983C23.7917 14.7903 23.7265 14.7849 23.6639 14.7827C23.6243 15.0501 23.5388 16.6294 23.5234 16.9853C23.4908 17.7454 23.4397 18.4925 23.4437 19.2672C23.5837 19.2641 23.8719 19.2441 23.9851 19.1987C24.0776 18.8436 24.1723 18.6006 24.2846 18.3924C24.3362 18.4805 24.3908 18.5681 24.4485 18.6554C24.3467 18.8231 24.2758 18.9815 24.2525 19.1244C24.3855 19.0848 24.5256 19.0305 24.6683 18.9651C24.6921 18.9962 24.7159 19.0274 24.7401 19.0581C24.5727 19.1293 24.4014 19.1956 24.2203 19.2694C24.1961 19.9623 24.815 19.8572 25.2745 19.6592C25.3115 19.6966 25.3489 19.7335 25.3868 19.7705C24.7688 20.053 23.9807 20.2159 23.9793 19.35C23.8908 19.3482 23.7022 19.4327 23.4423 19.4261C23.456 19.9569 23.4498 20.3147 23.5551 20.8068C24.3507 20.797 25.0798 20.4139 25.5912 19.9623C25.6569 20.0219 25.7243 20.0815 25.7934 20.1407L25.856 20.1941C25.2194 20.8126 24.3551 21.1935 23.4022 21.1935ZM26.8119 18.569C26.697 18.9922 26.5071 19.3838 26.2578 19.7282C26.2177 19.5253 26.1767 19.2805 26.1511 19.0238C26.337 18.8062 26.4586 18.5735 26.5348 18.3416C26.6212 18.4244 26.7146 18.5001 26.8119 18.569ZM20.1881 16.6681C20.2696 16.5217 20.3705 16.3642 20.4661 16.2485C20.7507 16.8781 21.1542 17.2007 21.5278 17.6497C21.7939 17.9692 22.4097 18.6055 22.5181 19.1288C21.7432 18.933 20.4829 18.0302 20.1322 17.2025C20.0199 16.9368 20.0679 16.8848 20.1881 16.6681ZM23.093 14.7894C23.1027 15.1547 23.1454 15.5374 23.1639 15.9072C23.182 16.2707 23.2071 16.6409 23.2287 17.0054C23.2736 17.7658 23.2886 18.4996 23.3097 19.2716C23.0895 19.265 22.9846 19.2414 22.7868 19.2085C22.5648 18.1507 21.7476 17.4815 21.1573 16.5212C20.7159 15.803 20.7948 15.815 21.1679 15.5356C21.671 15.1574 22.3789 14.8143 23.093 14.7894ZM26.1428 18.1899C26.1917 18.149 26.2397 18.1067 26.2868 18.064C26.2644 18.0337 26.2423 18.003 26.2212 17.9714L26.1881 17.9216C26.1679 18.0075 26.1529 18.0973 26.1428 18.1899ZM19.9547 17.4646C20.2564 18.1788 21.8476 19.0589 22.5472 19.2739C22.5965 20.1416 21.6005 19.7384 21.2067 19.5133C20.2005 18.9384 20.0256 18.2767 19.9547 17.4646ZM23.3093 19.4261C23.2974 19.9587 23.3 20.3138 23.1965 20.8064C22.6207 20.7988 22.019 20.5594 21.6234 20.3133C21.3983 20.1732 21.2124 20.0192 21.0428 19.8564C20.7895 19.6125 20.7613 19.5164 20.5811 19.2935C20.6644 19.3424 20.7529 19.4132 20.8445 19.4728C21.3921 19.8301 22.7807 20.5074 22.7917 19.3517C22.9419 19.3606 23.1128 19.4278 23.3093 19.4261Z" fill="#002F52"/>
<path d="M21.0423 9.55062C21.0982 9.96845 22.1828 13.5879 22.0008 11.3563C21.9542 10.7854 21.4652 9.63694 21.055 9.313L21.0423 9.55062ZM31.8727 15.0822C32.9039 15.2668 33.3528 16.1207 33.3528 16.1207C33.0119 16.0068 32.3784 15.7915 32.2141 15.925C32.9405 16.3223 33.6017 18.0916 33.9643 18.812C32.9317 17.736 32.1286 17.441 31.3387 17.6813C32.0678 17.2643 32.8405 17.6145 32.9832 17.5184C32.7075 16.2498 31.6268 15.7501 31.9158 15.726C32.1779 15.7038 32.7537 15.7163 32.8564 15.7919C32.7088 15.4261 32.4268 15.2237 31.8727 15.0822ZM31.6475 11.8249C31.1339 12.3042 30.5277 12.2129 30.5277 12.2129C30.7238 12.075 31.0898 11.82 31.0907 11.6807C30.5964 11.9148 29.4502 11.5824 28.9449 11.497C29.9 11.3621 30.3753 11.048 30.5793 10.5331C30.4872 11.084 29.9973 11.3608 29.9868 11.4743C30.7277 11.8187 31.4171 11.4351 31.311 11.5984C31.2145 11.747 30.9727 12.0496 30.8934 12.075C31.1352 12.1382 31.3506 12.0661 31.6475 11.8249ZM27.7859 10.6519C28.063 10.0036 28.6537 9.83807 28.6537 9.83807C28.5299 10.0445 28.2978 10.4272 28.3528 10.5554C28.7105 10.1389 29.892 9.97246 30.3876 9.84341C29.5687 10.3583 29.2612 10.8402 29.281 11.3946C29.1436 10.8535 29.4801 10.3996 29.4445 10.2915C28.629 10.2808 28.1528 10.914 28.1841 10.7209C28.2123 10.5456 28.3119 10.17 28.374 10.114C28.1286 10.1553 27.9603 10.3098 27.7859 10.6519ZM30.3083 14.7533C30.6343 14.9064 30.7387 15.2757 30.5251 15.6264C30.3119 15.977 29.6969 16.1207 29.4608 16.0344C29.2246 15.9481 29.2735 15.9379 29.2114 15.8653C29.229 15.8738 29.0722 15.8173 29.266 15.888C29.4599 15.9588 30.1418 15.7897 30.3304 15.48C30.5185 15.1703 30.4691 14.9402 30.3083 14.7533ZM25.5467 11.6834C25.5467 11.6834 24.0123 12.9067 25.3934 13.4553C26.2119 13.6409 26.9409 13.5728 27.6828 13.5274C27.6757 13.5488 27.6691 13.5706 27.6634 13.5928C27.5255 14.1246 27.8145 14.7231 28.3097 14.9295C28.7793 15.1253 29.2652 14.8975 29.4317 14.4191C29.2035 14.6826 28.8374 14.7778 28.4815 14.6292C28.0564 14.4521 27.7828 13.9857 27.8017 13.5203C29.0308 13.4504 30.7198 13.1438 32.5101 14.5206C29.8542 11.1512 25.3467 13.4914 25.5467 11.6834ZM29.2251 16.1701C29.307 16.576 30.9374 16.5484 30.9427 14.9407C31.381 15.706 31.311 17.1006 30.6114 18.0386C30.5691 17.688 30.3409 17.4766 30.1198 17.36C30.1198 17.36 30.4189 17.7787 30.3158 18.3701C30.2 18.4787 30.0727 18.5761 29.933 18.6607C29.9929 18.2731 30.0414 17.6403 29.77 17.4179C29.77 17.4179 29.8559 18.2873 29.4467 18.881C29.3127 18.9237 29.1713 18.9562 29.0211 18.9762C29.6731 17.3298 29.2251 16.1701 29.2251 16.1701ZM32.4365 14.1375C32.4365 14.1375 28.5088 9.74374 26.4775 11.8116C26.5189 12.4719 29.2823 10.6835 32.4365 14.1375ZM24.6343 13.7824C24.6343 13.7824 29.174 14.1219 28.1938 18.6887C28.1938 18.6887 27.0687 18.6794 26.4674 17.7792C26.6903 17.8023 27.8092 17.8223 27.3832 16.8456C27.3832 16.8456 25.2149 16.2271 25.9691 19.8688C24.0149 18.1939 23.3449 16.2177 24.6343 13.7824ZM24.7361 14.0204C23.7828 15.419 24.2634 17.9634 25.2053 18.6291C24.2506 17.995 24.1638 15.2366 25.092 14.8152C26.2832 14.7159 27.3555 15.2085 27.9625 15.9619C27.385 14.8285 25.6616 14.1539 24.7361 14.0204ZM28.87 13.7174C28.8881 13.7405 28.9044 13.7646 28.9189 13.789C28.9749 13.8816 29.0057 13.9768 29.0092 14.0609C29.0127 14.1481 28.9876 14.2242 28.9326 14.275C28.9255 14.2816 28.9176 14.2879 28.9092 14.2937C28.8312 14.3475 28.7224 14.3497 28.6092 14.3097C28.4986 14.2705 28.3832 14.1909 28.2894 14.0801C28.2634 14.0494 28.2401 14.0178 28.2202 13.9862C28.1995 13.9532 28.1819 13.9199 28.1678 13.8869L28.0872 13.7005L28.2105 13.858L28.2233 13.8745L28.2365 13.8905C28.3233 13.9929 28.4295 14.0663 28.5312 14.1019C28.6304 14.137 28.7238 14.1361 28.789 14.0907C28.8334 14.06 28.8586 14.012 28.8656 13.955C28.8731 13.8936 28.8603 13.8211 28.8277 13.7459L28.7431 13.5501L28.87 13.7174ZM30.2251 25.7274C30.0868 29.1511 29.3819 28.2402 29.8779 24.9816C30.1075 23.4736 30.211 25.359 30.2251 25.7274ZM30.9713 24.0044C31.9462 24.6942 31.8766 25.7813 31.8511 25.7959C31.5577 25.1988 31.2643 24.6016 30.9713 24.0044ZM33.9762 23.5007C33.1506 22.2828 31.329 21.7315 31.329 21.7315C33.9238 21.8979 34.4854 22.9361 33.9762 23.5007ZM31.0555 22.9685C31.3779 23.1737 31.8004 23.7375 31.7819 23.7499C31.5625 23.575 31.3533 23.3788 31.122 23.2297C30.5678 22.8729 30.0722 23.0135 29.7854 23.6316C28.0586 28.456 29.481 34.2292 30.4779 27.7752C30.6431 26.7055 30.6709 25.7074 30.6806 24.6354C30.7832 24.8419 30.8528 24.9945 30.9326 25.14C31.2268 25.6753 31.5119 26.2178 31.826 26.7388C31.9929 27.0156 32.3467 27.2742 32.5995 26.9929C32.7546 26.8207 32.7057 26.5778 32.6564 26.3588C32.5202 25.7523 32.3484 25.1543 32.192 24.5527C32.1594 24.4281 32.1295 24.3026 32.0784 24.0961C32.2938 24.2096 32.4334 24.2794 32.5705 24.3564C32.8198 24.4966 33.0594 24.6675 33.3185 24.7729C33.4912 24.8432 33.7427 24.8099 33.7845 24.5749C33.8154 24.4014 33.7008 24.2096 33.6004 24.0854C33.3705 23.8006 33.1339 23.5132 32.8608 23.2796C32.1013 22.6286 31.2722 22.1137 30.3687 21.752C30.6233 21.7626 30.8757 21.7893 31.1145 21.873C31.9669 22.1716 32.744 22.6597 33.4823 23.2293C34.296 23.8572 34.6956 24.797 34.763 25.9018C34.8044 26.5836 34.4916 26.774 33.955 26.4558C33.7242 26.3188 33.5079 26.1488 33.2599 25.9762C33.3308 26.333 33.4304 26.6467 33.4471 26.9627C33.4678 27.3529 33.4907 27.7498 33.4546 28.137C33.4246 28.4569 33.2634 28.7996 32.9542 28.8133C32.7405 28.8227 32.5387 28.6905 32.3735 28.5428C32.2542 28.432 31.674 27.7681 31.6251 27.6163C31.1669 29.6205 30.1788 32.5298 27.9348 33.5257C27.796 32.933 27.9718 31.5219 28.0401 30.3254C28.1268 28.7969 28.096 22.0581 30.3564 22.6464C30.6264 22.7162 30.8127 22.8297 31.0555 22.9685ZM31.3568 20.5025C31.0519 19.9115 30.5264 19.6632 29.6097 19.4479C29.6251 19.3584 30.4326 19.4554 30.5101 19.4705C31.1387 18.711 31.4348 18.646 31.4348 18.646C31.263 18.3866 30.7643 18.4151 30.6268 18.4191L30.626 18.4128C32.3171 17.6386 32.9026 18.7995 32.9026 18.7995C32.2207 18.6589 31.4705 19.374 31.2119 19.6485C33.9101 20.5185 34.1868 22.9423 34.1868 22.9423C32.9409 20.8602 29.8652 20.7806 28.781 22.4537C27.589 24.7756 27.1555 30.2515 26.8643 32.9721C26.7326 34.2056 26.8757 33.9244 25.1475 34.2461C21.6762 34.8918 23.9502 34.7302 25.0409 31.3003C25.9418 28.468 25.0061 30.1274 24.0542 31.3097C23.4749 32.0292 21.6815 34.6737 21.0057 34.7725C20.166 34.8949 17.5238 34.684 16.5656 34.591C19.6004 32.4524 23.7696 30.664 25.6387 27.3881C20.8991 30.5221 17.0092 30.7588 11.6326 31.5615C9.30657 31.9091 9.63741 32.5267 8.02287 31.0178C7.40613 30.4415 7.01803 29.9641 6.54578 29.2699C11.4008 30.5083 17.7744 29.6868 22.5506 27.7062C17.481 29.1662 11.2251 29.58 6.16737 28.4373C5.19732 27.4388 5.37309 26.7638 5.37309 26.7638C6.21979 27.364 14.4652 29.6931 21.6176 26.924C21.7097 26.362 21.8039 25.7999 21.8978 25.2419C22.826 25.1053 23.7537 24.9549 24.6841 24.7912C23.859 25.5116 22.9951 26.1568 22.1105 26.7237C24.2779 25.8053 26.3255 24.3978 28.011 22.3046C29.1925 20.8375 29.5061 20.7192 31.3568 20.5025ZM31.0837 20.336C29.1484 20.045 28.2321 21.2496 27.1854 22.6722C27.1497 21.7635 27.6229 20.4971 27.6171 20.5033C28.329 19.7958 30.5757 19.4412 31.0837 20.336ZM11.6885 32.6646C15.9145 31.3987 18.8216 31.5495 23.2489 29.3633C24.1489 28.9188 25.2775 28.1187 23.5599 29.5422C21.3304 31.3902 18.1167 32.5534 15.537 34.0023C14.6039 34.5264 12.8079 33.4972 11.9352 33.1368L11.5348 32.9712L11.3973 32.8115L11.6885 32.6646ZM8.38234 20.8691C8.46076 20.3912 8.25944 20.1847 7.86913 20.1807C7.45856 20.1767 7.04798 20.1723 6.63785 20.1683C6.46825 21.1864 6.29953 22.1943 6.12904 23.1897C5.96032 24.1735 5.79071 25.1476 5.62023 26.1092C5.57662 26.3553 5.61583 26.5555 5.76076 26.6944C5.76076 26.6944 5.76076 26.6935 5.76076 26.6926C5.77177 26.7041 5.78763 26.717 5.80085 26.7286C5.87882 26.79 5.97882 26.8381 6.10657 26.8652C6.88719 27.0312 7.67045 27.1798 8.45371 27.3093C8.48499 27.1215 8.52067 26.9346 8.55195 26.7469C8.56296 26.6801 8.58763 26.6249 8.659 26.6352C8.73697 26.6467 8.73917 26.7059 8.72816 26.7727C8.69688 26.9618 8.6634 27.1496 8.63212 27.3382C9.39512 27.4397 10.1599 27.5349 10.9255 27.6034C11.3489 27.6413 11.581 27.3743 11.6506 26.9177C11.8198 25.8066 11.9947 24.6919 12.1638 23.5759C12.3334 22.4564 12.5075 21.3328 12.6793 20.2074C12.2643 20.2065 11.8515 20.2052 11.4387 20.2039C11.0057 20.2025 10.774 20.4749 10.7048 20.9207C10.5845 21.6937 10.4616 22.4657 10.3436 23.2337C10.2255 23.9991 10.1044 24.7636 9.98675 25.5241C9.9775 25.5837 9.93301 25.662 9.85283 25.654C9.77442 25.6464 9.74754 25.5632 9.75679 25.5036C9.89027 24.6434 10.029 23.7775 10.163 22.9071C10.2969 22.0345 10.4352 21.1588 10.5713 20.2804C9.95107 20.2773 9.3308 20.2711 8.71054 20.2662C8.57442 21.1188 8.43653 21.9656 8.30217 22.8075C8.16869 23.6449 8.02948 24.4766 7.896 25.3033C7.88675 25.3603 7.8427 25.4315 7.76428 25.4217C7.68411 25.4115 7.65679 25.3318 7.66605 25.2758C7.78411 24.5513 7.90525 23.8216 8.02287 23.0896C8.14182 22.3549 8.26032 21.6127 8.38234 20.8691ZM11.555 25.7781C11.4568 26.3975 11.3586 27.0152 11.263 27.6319C12.0705 27.6795 12.8784 27.7098 13.6881 27.7285C13.7841 27.0997 13.8823 26.4687 13.9801 25.8378C13.17 25.8302 12.3625 25.8142 11.555 25.7781ZM12.6793 22.0919C12.5925 22.6735 12.5053 23.2551 12.4202 23.8349C12.3356 24.4134 12.2506 24.9914 12.166 25.5686C12.7819 25.5855 13.3978 25.5953 14.0154 25.5988C14.1026 25.0146 14.1894 24.4307 14.2762 23.8474C14.3634 23.264 14.4502 22.6797 14.5374 22.0959C13.9176 22.0986 13.2973 22.0964 12.6793 22.0919ZM12.9713 20.2079C12.8845 20.765 12.7995 21.3217 12.7149 21.8766C13.333 21.8797 13.9533 21.8823 14.5735 21.8797C14.6586 21.323 14.7431 20.7659 14.8299 20.2088C14.2097 20.2088 13.5894 20.2088 12.9713 20.2079ZM16.0881 26.936C16.0189 27.3912 16.1599 27.6653 16.5854 27.635C17.0008 27.6057 17.4154 27.5661 17.8326 27.5318C18.0022 26.414 18.1757 25.2984 18.3458 24.19C18.5149 23.0873 18.689 21.9887 18.8612 20.8958C18.9299 20.4584 18.7898 20.1923 18.3638 20.195C17.2506 20.2017 16.1374 20.2052 15.0264 20.2074C14.837 21.4596 14.6449 22.7127 14.4577 23.9648C14.27 25.2179 14.0806 26.4732 13.8934 27.728C14.5092 27.7196 15.1246 27.7102 15.7427 27.6804C15.8832 26.7437 16.026 25.808 16.1665 24.8748C16.307 23.9426 16.4497 23.0126 16.5925 22.0817C16.637 22.0808 16.6819 22.0795 16.7264 22.0786C16.789 22.0772 16.8176 22.1075 16.8066 22.1783C16.6881 22.969 16.5634 23.7619 16.4453 24.5549C16.3273 25.3465 16.2088 26.1426 16.0881 26.936ZM19.0555 20.8927C18.9555 21.5237 18.8568 22.1573 18.7608 22.7919C18.6647 23.4269 18.5691 24.0663 18.4709 24.7053C18.4022 25.1507 18.5334 25.4088 18.9572 25.3723C19.2427 25.3478 19.5282 25.3194 19.8163 25.2873C19.8075 25.3612 19.7982 25.4324 19.7916 25.5054C19.303 25.5592 18.8167 25.6028 18.3304 25.6455C18.2321 26.2649 18.1339 26.887 18.0383 27.5096C18.9396 27.4045 19.844 27.2893 20.7467 27.1478C21.1735 27.081 21.4039 26.7793 21.474 26.3522C21.5445 25.9228 21.6145 25.492 21.6859 25.0639C22.1119 25.007 22.3436 24.7275 22.4132 24.3146C22.5132 23.7206 22.6092 23.1287 22.7075 22.5405C22.8053 21.9562 22.9061 21.3733 23.0061 20.7953C22.4907 20.7454 21.9753 20.5318 21.6229 20.3125C21.5489 20.2666 21.4793 20.219 21.4132 20.1701C20.8691 20.1754 20.3255 20.1798 19.7823 20.1843C19.3568 20.1887 19.1246 20.4562 19.0555 20.8927ZM20.711 23.503C20.696 23.5986 20.6594 23.6422 20.5793 23.648C20.4991 23.6538 20.4665 23.6164 20.481 23.5203C20.5665 22.9645 20.6647 22.4132 20.7555 21.8619C20.7652 21.804 20.8092 21.7262 20.8894 21.7226C20.9696 21.7195 20.9947 21.7942 20.9854 21.8512C20.8942 22.4012 20.7964 22.9507 20.711 23.503ZM26.7123 22.8684C26.7458 22.6922 26.7797 22.5151 26.8149 22.3389C26.8845 21.9874 26.7436 21.7889 26.3176 21.8272C25.8246 21.8712 25.3312 21.9113 24.8383 21.9504C24.8652 21.796 24.8881 21.6398 24.9185 21.4863C24.9326 21.4164 24.981 21.3644 25.0612 21.3595C25.1392 21.355 25.163 21.4022 25.1484 21.4721C25.1317 21.5504 25.1238 21.63 25.1127 21.7097C25.733 21.6643 26.3533 21.6158 26.9735 21.5655C27.0317 21.2585 27.0881 20.9523 27.1497 20.6484C27.2193 20.3067 27.0806 20.1006 26.6546 20.1073L26.337 20.1122L26.4616 20.7143L25.7934 20.1411L25.7691 20.1202L25.3938 20.1251C24.9004 20.5029 24.2537 20.7988 23.5555 20.8073C23.5149 20.6182 23.4907 20.4491 23.4757 20.2826C23.3379 20.3877 23.2502 20.5487 23.2083 20.7539L23.207 20.7619C23.2053 20.7712 23.2035 20.781 23.2017 20.7908C23.1079 21.3301 23.0207 21.8739 22.9273 22.419C22.8577 22.8248 22.9986 23.0544 23.4224 23.0126C23.9154 22.9632 24.4088 22.9094 24.9017 22.8537C24.8771 22.9899 24.8568 23.1265 24.8304 23.2618C24.8167 23.3325 24.7612 23.3899 24.6898 23.3993C24.6097 23.41 24.5863 23.3623 24.6004 23.2911C24.6149 23.2195 24.6229 23.1452 24.6361 23.0722C24.0158 23.1461 23.3956 23.2115 22.7753 23.2769C22.7216 23.6151 22.6727 23.9533 22.6167 24.2906C22.5409 24.7502 22.7418 24.91 23.1299 24.8495C23.7414 24.7547 24.3546 24.6541 24.9682 24.5455C25.5744 24.02 26.159 23.4602 26.7123 22.8684ZM9.07838 16.8207C9.06913 16.9075 9.02684 16.9328 8.94798 16.9408C8.9101 16.9448 8.87221 16.9484 8.83565 16.9529C8.91318 16.4576 8.99072 15.9592 9.06957 15.4591C9.10746 15.4537 9.14578 15.4479 9.18367 15.4426C9.2612 15.4315 9.28851 15.4849 9.27926 15.5645C9.2123 15.985 9.14534 16.4042 9.07838 16.8207ZM8.8264 17.76C8.90393 17.7534 8.93124 17.7796 8.91274 17.8869C8.86252 18.2015 8.81406 18.5147 8.7656 18.8267C8.75635 18.9036 8.7123 18.9646 8.63477 18.9682C8.59688 18.9699 8.559 18.9722 8.52111 18.9735C8.58499 18.5744 8.64842 18.1725 8.7123 17.7694C8.75063 17.7663 8.78851 17.7632 8.8264 17.76ZM10.7242 17.9136C10.785 17.469 10.6453 17.2065 10.2277 17.2359C10.2352 17.1882 10.2445 17.1415 10.2537 17.0935C10.6713 17.0632 10.8898 16.778 10.9599 16.3294C11.0158 15.9521 11.0722 15.5739 11.1282 15.1943L11.2167 14.5967L11.218 14.5887V14.5882L11.2193 14.5798L11.2207 14.5713V14.5709L11.222 14.5629L11.2233 14.5544L11.2238 14.5531L11.2246 14.546L11.226 14.5375L11.2264 14.5353L11.2273 14.5291L11.2286 14.5206L11.229 14.5175L11.2299 14.5121L11.2312 14.5037L11.2317 14.4997L11.2326 14.4948L11.2339 14.4863L11.2348 14.4819L11.2352 14.4779L11.2365 14.4694L11.2374 14.4636L11.2379 14.4605L11.2392 14.4521L11.2401 14.4458L11.2405 14.4436L11.2418 14.4352L11.2431 14.428V14.4267L11.2445 14.4183L11.2458 14.4102V14.4098L11.2471 14.4013L11.2484 14.3929V14.3924L11.2497 14.3844L11.2511 14.376V14.3746L11.2519 14.3675L11.2533 14.3591L11.2537 14.3568L11.2546 14.3506L11.2559 14.3422L11.2564 14.339L11.2572 14.3337L11.2586 14.3252L11.259 14.3212L11.2599 14.3168L11.2612 14.3083L11.2621 14.3034L11.2625 14.2999L11.2638 14.2914L11.2647 14.2856L11.2652 14.283L11.2665 14.2745L11.2674 14.2678L11.2678 14.2661L11.2691 14.2576L11.2705 14.25V14.2492L11.2718 14.2407L11.2731 14.2322L11.2744 14.2238L11.2757 14.2153V14.2145L11.2771 14.2069L11.2784 14.1984L11.2788 14.1971L11.2797 14.19L11.281 14.1815L11.2815 14.1793L11.2823 14.1731L11.2837 14.1646L11.2841 14.1615L11.285 14.1562L11.2863 14.1477L11.2867 14.1437L11.2876 14.1392L11.289 14.1308L11.2898 14.1259L11.2903 14.1223L11.2916 14.1139L11.2925 14.1081L11.2929 14.1054L11.2942 14.097L11.2951 14.0903L11.2956 14.0885L11.2969 14.0801L11.2982 14.0725V14.0716L11.2995 14.0632L11.3008 14.0547L11.3017 14.048L11.3026 14.0414L11.3035 14.0347V14.0333L11.3044 14.028L11.3053 14.0213L11.3061 14.0147L11.3066 14.0124L11.307 14.0084L11.3079 14.0022L11.3092 13.992L11.3097 13.9893L11.311 13.9764L11.3114 13.9719V13.9702L11.3119 13.9639L11.3123 13.9577L11.3127 13.9519V13.9515L11.3132 13.9452L11.3141 13.9328V13.9323L11.3154 13.9145V13.9128V13.9083L11.3158 13.9021L11.3163 13.8963V13.8936V13.8905V13.8847V13.8789V13.8749V13.8732V13.8674V13.8616V13.8567V13.8558V13.85V13.8442V13.842V13.8344V13.8331V13.8273V13.8215V13.8171V13.8157L11.3158 13.8104V13.8051V13.8028V13.7997L11.3154 13.7944L11.3149 13.789V13.7859V13.7837L11.3145 13.7784L11.3141 13.773L11.3136 13.769V13.7677L11.3132 13.7624L11.3127 13.757L11.3123 13.7517L11.3119 13.7463L11.311 13.7414L11.3105 13.7365V13.7357L11.3101 13.7312L11.3092 13.7263L11.3083 13.7214L11.3079 13.7196L11.3075 13.7165L11.3066 13.7116L11.3057 13.7067V13.7063L11.3048 13.7018L11.3039 13.6969L11.303 13.692L11.3022 13.6889L11.3017 13.6876C11.2546 13.4669 11.0986 13.3565 10.8127 13.3984C10.1978 13.4882 9.58323 13.5959 8.96913 13.7165L8.96516 13.7174L8.94666 13.721L8.9242 13.7254L8.91406 13.7276L8.90173 13.7299L8.87926 13.7343L8.86296 13.7374L8.85679 13.7388L8.83433 13.7432L8.81186 13.7477L8.78939 13.7521L8.76693 13.7566L8.76032 13.7579L8.72199 13.7655L8.70922 13.7681L8.69953 13.7704L8.67706 13.7748L8.65812 13.7788L8.65459 13.7797L8.63212 13.7842L8.60966 13.7886L8.60701 13.789L8.58763 13.7931L8.56516 13.7975L8.55591 13.7993L8.5427 13.802L8.52023 13.8068L8.50481 13.81L8.49776 13.8113L8.4753 13.8157L8.45371 13.8202H8.45283L8.43036 13.8251L8.4079 13.83L8.40261 13.8313L8.38543 13.8349L8.36296 13.8398L8.35107 13.8424L8.34049 13.8447L8.31803 13.8496L8.29997 13.8536L8.29556 13.8545L8.27309 13.8594L8.25063 13.8643L8.24886 13.8647L8.22816 13.8691L8.20569 13.874L8.19732 13.8758L8.18279 13.8789L8.16032 13.8838L8.14578 13.8869L8.13785 13.8887L8.11538 13.8936L8.09468 13.8981L8.09292 13.8985L8.07045 13.9034L8.04798 13.9083L8.04358 13.9092L8.02552 13.9132L8.00305 13.9181L7.99204 13.9203L7.98058 13.923L7.95812 13.9279L7.94093 13.9314L7.93565 13.9328L7.91318 13.9377L7.89071 13.9426L7.88983 13.943L7.86825 13.9479L7.84578 13.9528L7.83873 13.9546L7.82331 13.9581L7.80085 13.963L7.78719 13.9662L7.77838 13.9684L7.75591 13.9733L7.73609 13.9777L7.73345 13.9782L7.71098 13.9831L7.68851 13.988L7.68499 13.9888L7.66605 13.9928L7.64358 13.9977L7.63389 14L7.62111 14.0026L7.59864 14.0075L7.58234 14.0111L7.57618 14.0124L7.55371 14.0173L7.53124 14.0222L7.52243 14.0765L7.51362 14.1308L7.50481 14.1851L7.496 14.2389L7.48807 14.2883L7.36605 15.0426L7.36516 15.0475L7.35635 15.1013L7.34754 15.1551L7.33873 15.209L7.32992 15.2628L7.32111 15.3167L7.3123 15.3701L7.28631 15.5307L7.2775 15.5841L7.27662 15.5899C7.17574 16.2124 7.07486 16.83 6.97309 17.4428C6.8427 18.2291 6.71098 19.0064 6.57882 19.7758H7.93785C8.14094 19.7758 8.31274 19.823 8.45327 19.9093C8.45547 19.8915 8.45767 19.8733 8.45988 19.855C9.11538 19.8563 9.77089 19.8572 10.4273 19.8577C10.4727 19.5609 10.518 19.2641 10.5634 18.9668C10.6149 18.6144 10.6696 18.2642 10.7242 17.9136ZM13.6484 13.1643L13.6445 13.191L13.6431 13.2008L13.6379 13.2373L13.6326 13.2738L13.6273 13.3103L13.622 13.3467L13.6167 13.3832L13.6114 13.4197L13.5088 14.1161L13.5035 14.1526L13.4982 14.1891L13.4942 14.2171C13.4308 14.6479 13.3678 15.0782 13.3053 15.5085C13.1916 16.2894 13.0762 17.0717 12.9621 17.8504C12.8938 18.3065 13.0317 18.5806 13.4511 18.577C14.3436 18.5699 15.2383 18.5735 16.1321 18.5908C16.5497 18.5988 16.7669 18.3323 16.8365 17.8851C16.9489 17.1237 17.0625 16.3637 17.1749 15.609C17.2431 15.1502 17.3123 14.6928 17.3819 14.2363L17.3841 14.2225L17.3863 14.2087L17.3872 14.2029L17.3885 14.1949L17.3907 14.1811L17.3925 14.1677V14.1673L17.3947 14.1535L17.3969 14.1397L17.3982 14.1321L17.3991 14.1259L17.4013 14.1121L17.4035 14.0983V14.097L17.4053 14.085L17.4075 14.0712L17.4088 14.0618L17.4097 14.0574L17.4119 14.0436L17.4141 14.0298L17.4145 14.0262L17.4163 14.016L17.4185 14.0022L17.4202 13.9911L17.4207 13.9884L17.4229 13.9746L17.4251 13.9608L17.426 13.9555L17.4273 13.947L17.4295 13.9332L17.4312 13.9203V13.9194L17.4334 13.9056L17.4356 13.8918L17.4365 13.8847L17.4374 13.878L17.4396 13.8643L17.4418 13.8505V13.8496L17.4436 13.8371L17.4458 13.8233L17.4471 13.8144L17.448 13.8095L17.4502 13.7957L17.4524 13.7819L17.4528 13.7793L17.4546 13.7686L17.4568 13.7548L17.4586 13.7441L17.459 13.741L17.4612 13.7272L17.4634 13.7134L17.4643 13.709L17.4656 13.7001L17.4678 13.6863L17.4696 13.6738V13.6725L17.4718 13.6587L17.474 13.6449L17.4749 13.6386L17.4762 13.6315L17.4784 13.6177L17.4806 13.6039V13.6035L17.4828 13.5906L17.485 13.5768L17.4863 13.5683L17.4872 13.563L17.4894 13.5492L17.4916 13.5354L17.492 13.5332L17.4938 13.5216L17.496 13.5078L17.4978 13.498L17.4982 13.4945L17.5004 13.4811L17.5026 13.4673L17.5031 13.4633L17.5044 13.454L17.5066 13.4402L17.5083 13.4282L17.5088 13.4264L17.511 13.4126L17.5132 13.3988L17.5141 13.393L17.5154 13.3855L17.5176 13.3717L17.5198 13.3579C17.1158 13.3018 16.7127 13.2573 16.3097 13.2248C15.8577 13.1883 15.6401 13.5439 15.5705 13.9644L15.5674 13.9862L15.5643 14.008L15.5612 14.0298L15.5581 14.0516L15.555 14.0734L15.5533 14.0867L15.3705 15.3576C15.3035 15.8226 15.237 16.2894 15.17 16.7566C15.1608 16.8603 15.1092 16.9008 15.0396 16.9003C14.9608 16.8995 14.9348 16.8581 14.944 16.7544C15.0123 16.2854 15.0806 15.8159 15.1489 15.3469C15.2101 14.9269 15.2713 14.5064 15.3326 14.0872L15.3343 14.0747L15.3374 14.0529L15.3405 14.0311L15.3436 14.0093L15.3467 13.9875L15.3497 13.9657L15.3528 13.9439C15.4211 13.5332 15.2995 13.1625 14.9339 13.155L14.9163 13.1545H14.9136L14.8986 13.1541H14.8934L14.881 13.1536H14.8735H14.8638H14.8537H14.8467H14.8339H14.829L14.8136 13.1532H14.8114L14.7938 13.1527H14.7934L14.7762 13.1523H14.7731H14.7586H14.7528H14.7409H14.7326H14.7233H14.7127H14.7061H14.6929H14.689H14.6731H14.6713H14.6537H14.6528H14.6361H14.6326H14.6185H14.6123H14.6008H14.592H14.5832H14.5722H14.566H14.5524H14.5489H14.5326H14.5312H14.5141H14.5127H14.4969H14.4929H14.4793H14.4727H14.4616H14.4524H14.444H14.4326H14.4268H14.4127H14.4053H14.3885H14.3876H14.37H14.3682H14.3528H14.3484H14.3352H14.3282H14.3176H14.3079H14.3H14.2876H14.2823H14.2678H14.2652H14.248H14.2475H14.2299H14.2277H14.2127H14.2079H14.1956H14.1881H14.1779H14.1678H14.1603H14.1475H14.1427H14.1277H14.1255H14.1079H14.1075H14.0903H14.0876H14.0731H14.0678H14.0559H14.048H14.0383H14.0277H14.0207H14.0075H14.003H13.9876H13.9859L13.9682 13.1527H13.9674H13.9506H13.9475H13.9334H13.9277H13.9163H13.9079H13.8991H13.8881H13.8815H13.8678H13.8638L13.848 13.1532H13.8467L13.829 13.1536H13.8277L13.8114 13.1541C13.7577 13.1621 13.7031 13.1634 13.6484 13.1643ZM17.5744 14.2705C17.4868 14.8392 17.3995 15.4106 17.3132 15.9828C17.2171 16.6173 17.122 17.2541 17.0264 17.8935C16.9564 18.339 17.0964 18.6166 17.5136 18.6349C18.4643 18.6763 19.4158 18.7319 20.3674 18.8C20.0801 18.4013 19.9978 17.9607 19.9542 17.4641C20.0823 17.7672 20.4427 18.1005 20.8687 18.3999L20.9053 18.1859C20.5868 17.9024 20.3163 17.5861 20.166 17.2768C19.8017 17.2287 19.4374 17.1838 19.0731 17.1429C19.0198 17.1371 18.9942 17.105 19.0035 17.0378C19.0079 16.9991 19.0141 16.9613 19.0202 16.923C19.374 16.9653 19.7282 17.0107 20.0819 17.0601C20.0431 16.9079 20.0934 16.8398 20.1885 16.6685C20.27 16.5221 20.3709 16.3646 20.4665 16.2489C20.6396 16.6316 20.8564 16.9008 21.0837 17.154C21.1176 16.9577 21.1515 16.762 21.1859 16.5666L21.1577 16.5208C20.8744 16.0598 20.8053 15.8996 20.8907 15.7701C20.3458 15.6517 19.8008 15.5454 19.2559 15.4524C19.2621 15.4146 19.2678 15.3758 19.274 15.3389C19.2907 15.2739 19.3255 15.2508 19.3771 15.2602C19.9401 15.3638 20.5035 15.4791 21.0665 15.6099L21.1092 15.5783L21.1101 15.5779L21.111 15.5774L21.1114 15.577L21.1123 15.5765L21.1127 15.5761L21.1132 15.5756L21.1141 15.5752L21.1145 15.5748L21.1149 15.5743L21.1158 15.5734L21.1167 15.573L21.1176 15.5725L21.1185 15.5721L21.1193 15.5716V15.5712L21.1202 15.5707L21.1207 15.5703L21.1211 15.5699L21.122 15.5694L21.1224 15.569L21.1229 15.5685L21.1238 15.5681L21.1246 15.5676L21.1255 15.5672L21.1264 15.5667L21.1273 15.5663H21.1277L21.1286 15.5659L21.129 15.5654L21.1295 15.565L21.1304 15.5645L21.1308 15.5641L21.1312 15.5636L21.1321 15.5627L21.133 15.5623L21.1339 15.5618L21.1348 15.561L21.1357 15.5605L21.1365 15.5596L21.137 15.5592L21.1374 15.5587L21.1383 15.5583L21.1387 15.5578L21.1392 15.5574L21.1401 15.5565L21.1409 15.5561L21.1418 15.5556L21.1427 15.5547L21.1436 15.5543L21.1445 15.5534L21.1449 15.5529L21.1453 15.5525L21.1462 15.5516L21.1467 15.5512L21.1471 15.5507L21.1489 15.5494L21.1497 15.5485L21.1506 15.5476L21.1515 15.5472L21.1524 15.5463L21.1528 15.5458L21.1533 15.5454L21.1542 15.5445L21.1546 15.544L21.155 15.5436L21.1559 15.5427L21.1568 15.5423L21.1577 15.5414L21.1586 15.5405L21.1594 15.54L21.1603 15.5392L21.1608 15.5387L21.1612 15.5383L21.1621 15.5374L21.1625 15.5369L21.163 15.5365L21.1638 15.5356L21.1647 15.5351L21.1656 15.5343L21.1691 15.5316L21.1727 15.5289L21.1762 15.5263L21.1797 15.5236L21.1832 15.5209L21.1868 15.5182L21.1903 15.5156L21.1938 15.5129L21.1973 15.5102L21.2008 15.5076L21.2044 15.5049L21.2079 15.5022L21.2114 15.4996L21.2149 15.4969L21.2185 15.4942L21.222 15.4915L21.2255 15.4889L21.229 15.4862L21.2326 15.4835L21.2361 15.4809L21.2396 15.4782L21.2431 15.4755L21.2467 15.4729L21.2502 15.4702L21.2537 15.4675L21.2572 15.4648L21.2608 15.4622L21.2643 15.4595L21.2678 15.4568L21.2713 15.4542L21.2749 15.4515L21.2784 15.4488L21.2819 15.4462L21.2854 15.4435L21.289 15.4408L21.2925 15.4381L21.296 15.4355L21.2995 15.4328L21.3031 15.4301L21.3066 15.4275L21.3101 15.4248L21.3136 15.4221L21.3171 15.4195L21.3207 15.4172L21.3242 15.415L21.3277 15.4128L21.3312 15.4106L21.3348 15.4079L21.3383 15.4052L21.3458 15.4003L21.3493 15.3981L21.3533 15.3959L21.3568 15.3936L21.3603 15.3914L21.3678 15.3865L21.3718 15.3839L21.3753 15.3816L21.3788 15.3794L21.3823 15.3772L21.3863 15.375L21.3903 15.3727L21.3942 15.3705L21.3956 15.3629L21.3969 15.3554L21.3973 15.354L21.3986 15.3478L21.4 15.3402L21.4004 15.3376L21.4013 15.3327L21.4057 15.3095L21.4066 15.3042L21.407 15.302L21.4083 15.2944L21.4097 15.2877V15.2869L21.4154 15.2561L21.4158 15.2544L21.4167 15.2481L21.418 15.2406L21.4185 15.2375L21.4193 15.2326L21.4246 15.2041L21.4251 15.2019L21.4308 15.1712V15.1707L21.4365 15.1409L21.437 15.1378L21.4401 15.1213L21.4405 15.1182L21.4418 15.1106L21.4431 15.1049L21.4436 15.1031L21.4449 15.0955L21.4462 15.0884V15.0879L21.4506 15.0648L21.4519 15.0572L21.4524 15.055L21.4533 15.0497L21.4555 15.0386L21.4564 15.0345L21.4577 15.027L21.4586 15.0221L21.459 15.0194L21.4603 15.0119L21.4616 15.0056L21.4621 15.0043L21.4634 14.9967L21.4647 14.9892L21.466 14.9816L21.4674 14.974L21.4678 14.9727L21.4691 14.966L21.4705 14.9585L21.4709 14.9558L21.4718 14.9504L21.4731 14.9429L21.474 14.9393L21.4749 14.9353L21.4762 14.9278L21.4771 14.9229L21.4775 14.9202L21.4788 14.9126L21.4801 14.9064L21.4806 14.9051L21.4819 14.8975L21.4832 14.8899L21.4845 14.8824C21.5202 14.691 21.5559 14.5006 21.5916 14.3115C21.1969 14.1918 20.8026 14.0783 20.4083 13.9728L20.3757 13.9639L20.3612 13.9599C20.2929 13.9417 20.2246 13.9239 20.1559 13.9061L20.1462 13.9034L20.1048 13.8927L20.081 13.8865L20.0154 13.8696L20.0026 13.8665L19.9828 13.8616L19.9515 13.8536L19.9502 13.8531L19.9004 13.8407L19.885 13.8367L19.8524 13.8287L19.8493 13.8278L19.7537 13.8042L19.7467 13.8024L19.7211 13.7962L19.6956 13.7899L19.6881 13.7882L19.6555 13.7801L19.644 13.7775L19.5929 13.765L19.5898 13.7641L19.5418 13.7526L19.5246 13.7486L19.492 13.7405L19.4907 13.7401L19.459 13.7325L19.4396 13.7281L19.3934 13.7174L19.3881 13.7161L19.3608 13.7098L19.337 13.7045L19.3282 13.7023L19.2956 13.6947L19.2859 13.6925L19.2625 13.6871L19.2343 13.6809L19.2295 13.6796L19.1832 13.6694L19.1643 13.6649L19.1321 13.6578H19.1312L19.0986 13.6507L19.0806 13.6467L19.0656 13.6435L19.0326 13.6364L19.029 13.6355L18.9995 13.6293L18.9775 13.6244L18.9339 13.6151L18.926 13.6133L18.9008 13.6079L18.8749 13.6022L18.8682 13.6008L18.8356 13.5937L18.8238 13.591L18.8026 13.5866L18.7722 13.5804L18.7696 13.5799L18.737 13.5732L18.7211 13.5697L18.7044 13.5661L18.6718 13.5594L18.67 13.559H18.6691L18.5845 13.5416L18.5735 13.5394L18.5678 13.5381L18.5409 13.5327L18.5163 13.5278L18.5079 13.5261L18.4749 13.5194L18.4647 13.5176L18.4423 13.5132L18.4136 13.5078L18.4092 13.5069L18.3621 13.4976L18.3436 13.494L18.311 13.4878C17.8951 13.4086 17.6656 13.6587 17.5973 14.0934L17.5929 14.1228L17.5885 14.1522L17.5841 14.1815L17.5797 14.2109L17.5753 14.2403L17.5744 14.2705ZM12.5233 19.7718L14.9101 19.7727H16.1942C16.2414 19.4603 16.2898 19.1475 16.3383 18.8351C17.0762 18.8525 17.8158 18.8752 18.5533 18.9094C19.2202 18.9401 19.8881 18.9815 20.5564 19.026C20.6127 19.0839 20.6744 19.1413 20.7423 19.1973L20.7101 19.3807C20.6656 19.3491 20.6224 19.3188 20.5801 19.2943C20.6277 19.3531 20.6647 19.4029 20.6978 19.4492C20.6788 19.5573 20.6603 19.665 20.6418 19.7731H19.7524C19.4533 19.7731 19.2057 19.8746 19.0207 20.0584C18.8713 19.8777 18.6436 19.7731 18.3471 19.7731H16.5506C16.5973 19.4639 16.6458 19.1528 16.6942 18.8436C15.9533 18.8276 15.2123 18.8155 14.4731 18.8147C13.7339 18.8138 13.7383 18.812 12.8533 18.8253C12.6299 18.8284 12.6026 18.767 12.6119 18.6847C12.7471 17.7703 12.8854 16.8532 13.0202 15.9352C13.1026 15.3736 13.1863 14.8103 13.27 14.2474L13.2762 14.2069L13.2828 14.1637L13.289 14.1206L13.2956 14.0774L13.3022 14.0342L13.3088 13.9911L13.3154 13.9479L13.322 13.9047L13.3286 13.8616L13.3352 13.8184L13.3418 13.7753L13.3484 13.7321L13.355 13.6889L13.3678 13.6026L13.3744 13.5594L13.3872 13.4731L13.3938 13.43L13.4 13.3868L13.4066 13.3436L13.4127 13.3005L13.4193 13.2573L13.4229 13.2337L13.4321 13.171C12.822 13.2026 12.2132 13.2444 11.6044 13.3018L11.5564 13.6249L11.5493 13.672L11.5414 13.725L11.5334 13.7779L11.4471 14.3595L11.4392 14.4125L11.4312 14.4654L11.4233 14.5184L11.4176 14.5584C11.3123 15.2673 11.2075 15.9743 11.1031 16.6796C10.9453 17.7445 10.7841 18.8031 10.626 19.8559L11.0515 19.8563C11.1788 19.8025 11.3216 19.774 11.4775 19.774L12.5233 19.7718ZM21.544 13.6778C22.6017 14.0618 23.5665 12.4559 23.8502 11.6113C23.8238 11.6011 22.0872 15.722 20.2471 9.69301C18.9132 5.32286 21.7202 7.9963 22.5964 11.505C22.6665 11.1926 23.3859 7.70484 24.0216 8.577C24.1779 8.79148 24.0656 10.627 24.0594 11.1347C24.1837 10.9848 25.9308 8.68024 25.6008 10.0276C25.3189 11.1784 23.7771 13.1643 22.9361 14.0805C23.3995 13.7721 23.9158 13.2844 24.4048 12.7064C24.4189 12.301 24.7189 11.9286 24.9951 11.7208L25.2986 11.4925C26.1638 10.1335 26.685 8.63663 26.1414 7.79117C25.7801 7.2296 24.9973 8.58101 24.766 8.91563C24.6436 4.84896 22.8832 7.66212 22.8145 8.56365C22.4123 8.42348 21.489 4.95264 18.0687 5.82169C17.6101 5.93827 18.2198 6.87139 18.3282 7.18689C18.9925 9.11543 19.9321 12.4425 21.544 13.6778ZM13.1075 12.8088C14.0013 12.7247 14.8881 12.7291 15.7788 12.8444C15.6383 12.8653 15.496 12.8871 15.3528 12.9089C15.3819 12.9276 15.4101 12.9489 15.437 12.9725C15.4881 13.017 15.5317 13.0668 15.5687 13.1207C15.5947 13.0953 15.6224 13.0717 15.6515 13.049C15.8497 12.896 16.0872 12.8368 16.3339 12.8568C16.7453 12.8897 17.1559 12.9356 17.5652 12.9921L17.9414 13.0442L17.929 13.1256C18.0638 13.09 18.2163 13.0855 18.385 13.1176C18.9678 13.2284 19.5471 13.3596 20.122 13.5065C19.5652 12.5128 19.218 11.27 18.9775 10.6542C18.8401 10.3026 16.9938 5.85328 16.8308 5.83904C16.681 5.82569 14.8511 6.60752 14.5691 6.73746C15.7502 7.45031 16.8837 8.53473 17.1823 9.91061C16.5757 9.39621 13.9533 7.18155 13.4515 7.30925C13.1854 7.37689 11.5572 8.5196 11.2343 8.76389C13.3312 9.0073 16.7392 10.126 17.6912 11.8378C14.7608 11.0742 11.2299 11.371 7.93124 12.2708C7.93477 12.2703 7.89336 12.1248 7.36076 12.9356C6.90349 13.6306 6.54798 14.287 6.20305 15.0132C6.5286 14.7996 6.8079 14.6323 7.07397 14.4903L7.15988 13.9586L7.20041 13.7072L7.44666 13.6516C8.54226 13.4028 9.64578 13.1852 10.7572 13.0223C10.9299 12.997 11.1044 13.0081 11.2586 13.0771L11.2771 12.9516L11.5687 12.924C12.0806 12.876 12.5938 12.8386 13.1075 12.8088ZM6.95195 15.2424C6.62067 15.4123 6.29776 15.5943 5.98543 15.7897C5.62375 16.0162 6.21494 15.8827 6.8775 15.6993L6.95195 15.2424ZM23.1352 15.4751C23.2374 15.4221 23.3484 15.3638 23.4696 15.3006C24.0273 13.0553 24.1594 14.4138 22.492 14.8806C22.689 14.829 22.8907 14.7965 23.0929 14.7894C23.0991 15.0136 23.1171 15.2446 23.1352 15.4751ZM22.4511 14.8922C22.4057 14.9042 22.3594 14.9157 22.3114 14.9264C22.1528 14.9616 22.0013 14.9723 21.8564 14.9607L21.8242 15.1324C22.0224 15.0354 22.2334 14.9522 22.4511 14.8922ZM27.7427 9.55774C27.837 9.68589 27.5652 10.5536 27.5652 10.5536C28.3163 9.24714 27.9885 8.45997 27.9885 8.45997C27.8542 8.99973 27.5625 9.37129 27.2097 9.76198C27.2581 8.72029 27.0524 7.78405 26.2775 7.62742C26.9912 8.75232 26.7167 10.0045 25.6343 11.6042C25.8167 11.6202 26.6691 10.1335 26.8304 9.681C27.1321 10.0672 26.981 11.2126 27.1365 10.32C27.1515 10.2341 27.6405 9.77845 27.7427 9.55774ZM14.0229 9.97246C13.4405 9.81449 10.7374 9.38152 10.2423 9.58755C10.0282 9.67699 8.65503 11.2104 8.42199 11.4898C11.5154 10.8664 13.8242 10.6261 16.6317 11.2576C15.9907 10.6711 14.8929 10.2728 14.0229 9.97246ZM23.4105 10.0828C23.3387 10.4085 22.6282 13.0117 23.3652 11.2135C23.5942 10.6551 23.5568 9.45539 23.4105 10.0828Z" fill="#002F52"/>
<path fill-rule="evenodd" clip-rule="evenodd" d="M7.09174 14.3804L5.83006 22.9628C5.20848 21.3622 4.92962 15.1124 7.09174 14.3804Z" fill="#002F52"/>
<path fill-rule="evenodd" clip-rule="evenodd" d="M12.6899 4.34254C12.7661 4.43643 12.8599 4.49962 12.9722 4.53166C13.085 4.5637 13.2136 4.54679 13.359 4.48049C13.5366 4.3995 13.6467 4.2798 13.6894 4.12272C13.7322 3.9652 13.696 3.75828 13.5806 3.50064C13.4947 3.30796 13.3859 3.15712 13.2542 3.0481C13.1233 2.93908 12.9436 2.93685 12.715 3.04098C12.6189 3.08503 12.5388 3.14644 12.4758 3.22609C12.4123 3.30574 12.3788 3.40987 12.3731 3.53891C12.3678 3.66795 12.4044 3.81969 12.4828 3.99501C12.5454 4.13296 12.6141 4.2491 12.6899 4.34254Z" fill="#002F52"/>
<path fill-rule="evenodd" clip-rule="evenodd" d="M10.9696 4.64021C10.9899 4.56368 10.9652 4.47067 10.8948 4.36121C10.8432 4.28156 10.7833 4.22816 10.7141 4.20146C10.645 4.17476 10.5701 4.18811 10.4903 4.24062L9.85907 4.6549L10.2247 5.22358L10.837 4.82221C10.904 4.77682 10.9485 4.7163 10.9696 4.64021Z" fill="#002F52"/>
<path fill-rule="evenodd" clip-rule="evenodd" d="M8.07882 6.95544C8.17661 7.07069 8.27529 7.16235 8.37397 7.23088C8.47309 7.29941 8.58102 7.33323 8.69776 7.33189C8.81494 7.331 8.93344 7.2776 9.05459 7.17259C9.20216 7.04443 9.27485 6.89848 9.27177 6.73517C9.26912 6.57231 9.17661 6.38364 8.99423 6.16916C8.85811 6.00897 8.71142 5.89461 8.55503 5.82741C8.39908 5.75978 8.22595 5.80872 8.03564 5.97381C7.95547 6.04323 7.896 6.12511 7.85767 6.21944C7.81934 6.31378 7.81582 6.42324 7.84622 6.54873C7.87749 6.67421 7.95503 6.80948 8.07882 6.95544Z" fill="#002F52"/>
<path fill-rule="evenodd" clip-rule="evenodd" d="M34.9239 10.0641C34.997 10.0677 35.0648 10.0472 35.1269 10.0036C35.1833 9.964 35.2172 9.91105 35.2283 9.84564C35.2397 9.78067 35.2221 9.71392 35.1754 9.64629L34.7446 9.02332L34.3098 9.33035L34.7463 9.96089C34.7913 10.0263 34.8503 10.061 34.9239 10.0641Z" fill="#002F52"/>
<path fill-rule="evenodd" clip-rule="evenodd" d="M2.91146 13.9377C2.9978 14.0329 3.12952 14.1148 3.30749 14.1833C3.44802 14.2376 3.57798 14.271 3.69692 14.2839C3.8163 14.2963 3.92732 14.2745 4.02908 14.2171C4.13128 14.1597 4.21102 14.056 4.26784 13.9052C4.33745 13.7214 4.3326 13.5581 4.25287 13.4161C4.17357 13.2742 4.00353 13.1527 3.74185 13.0517C3.5467 12.9761 3.36388 12.9462 3.19472 12.9623C3.02555 12.9778 2.89648 13.1042 2.80661 13.3405C2.76873 13.4402 2.75507 13.5407 2.76608 13.6422C2.7771 13.7441 2.82555 13.842 2.91146 13.9377Z" fill="#002F52"/>
<path fill-rule="evenodd" clip-rule="evenodd" d="M36.292 11.807L35.4343 11.9049L35.7401 12.4839L36.292 11.807Z" fill="#002F52"/>
<path fill-rule="evenodd" clip-rule="evenodd" d="M22.4806 2.20934C22.533 2.15772 22.5643 2.09364 22.5744 2.01755C22.5837 1.94903 22.5687 1.88806 22.5286 1.83511C22.489 1.7826 22.4286 1.75012 22.348 1.739L21.6026 1.63531L21.5304 2.16618L22.285 2.27119C22.3634 2.28187 22.4286 2.2614 22.4806 2.20934Z" fill="#002F52"/>
<path fill-rule="evenodd" clip-rule="evenodd" d="M24.7048 2.33661L24.1859 3.03345L24.8118 3.20654L24.7048 2.33661Z" fill="#002F52"/>
<path fill-rule="evenodd" clip-rule="evenodd" d="M33.9679 10.51C33.9943 10.5478 34.0304 10.5754 34.0762 10.5932C34.1225 10.6106 34.1709 10.6164 34.2216 10.6097C34.2723 10.6035 34.3181 10.5857 34.3586 10.5572C34.4313 10.506 34.4643 10.4446 34.4582 10.3725C34.4524 10.3009 34.4335 10.2413 34.4 10.1932L33.9692 9.57022L33.5317 9.87904L33.9679 10.51Z" fill="#002F52"/>
<path fill-rule="evenodd" clip-rule="evenodd" d="M22.2895 3.19674C22.3335 3.17404 22.3705 3.14245 22.4005 3.10018C22.4305 3.05835 22.4485 3.01251 22.4556 2.96312C22.4675 2.87457 22.4459 2.80827 22.389 2.76377C22.3331 2.71927 22.2767 2.69302 22.219 2.68501L21.4736 2.58133L21.4009 3.1153L22.1556 3.22032C22.2009 3.22699 22.2454 3.21899 22.2895 3.19674Z" fill="#002F52"/>
<path fill-rule="evenodd" clip-rule="evenodd" d="M20.1558 37.7187C20.1175 37.6444 20.0602 37.5821 19.9845 37.5322C19.9078 37.4828 19.8109 37.4535 19.692 37.4446C19.5955 37.437 19.5039 37.4508 19.4171 37.4851C19.3303 37.5193 19.2545 37.5892 19.1902 37.6938C19.1263 37.7983 19.0871 37.947 19.073 38.1392C19.0616 38.2909 19.0664 38.4267 19.0884 38.5472C19.11 38.6678 19.162 38.7702 19.2448 38.8534C19.3272 38.9375 19.4488 38.9851 19.6096 38.9976C19.7237 39.0065 19.8246 38.9909 19.9118 38.9508C19.9994 38.9108 20.0717 38.8343 20.1294 38.7217C20.1871 38.6086 20.2232 38.4547 20.2378 38.2602C20.2453 38.1574 20.2431 38.0604 20.2312 37.9688C20.2197 37.8767 20.1946 37.7934 20.1558 37.7187Z" fill="#002F52"/>
<path fill-rule="evenodd" clip-rule="evenodd" d="M20 0C8.95453 0 0 8.72623 0 19.4901C0 30.254 8.95453 38.9802 20 38.9802C31.0455 38.9802 40 30.254 40 19.4901C40 8.72623 31.0455 0 20 0ZM38.3433 15.1846L37.0287 15.4801C36.9039 15.5081 36.8052 15.5429 36.7333 15.5845C36.6615 15.6262 36.613 15.6803 36.5878 15.7469C36.5631 15.8135 36.5623 15.8969 36.5865 15.9978L36.7377 16.6362L36.3361 16.7264L36.1695 16.0223C36.1377 15.8878 36.1311 15.7671 36.1483 15.6584C36.1659 15.5502 36.2047 15.4552 36.266 15.3727C36.3268 15.2902 36.404 15.2224 36.4979 15.1678C36.5918 15.1137 36.7011 15.0724 36.825 15.0449L38.2348 14.7279L38.3433 15.1846ZM37.7631 13.2517L36.4789 13.6547C36.3568 13.693 36.2616 13.7355 36.1937 13.7832C36.1258 13.8309 36.0822 13.8884 36.0628 13.9567C36.0438 14.025 36.0504 14.1084 36.0831 14.2068L36.2889 14.8301L35.8966 14.9534L35.6695 14.2656C35.6263 14.1342 35.6091 14.0143 35.6171 13.9048C35.6255 13.7956 35.6559 13.6977 35.7097 13.6105C35.763 13.5233 35.834 13.4494 35.923 13.3875C36.0121 13.3261 36.1174 13.2758 36.2382 13.238L37.6154 12.8058L37.7631 13.2517ZM36.9308 11.3722L35.3424 13.2556L35.0717 12.7616L35.4412 12.3311L35.0259 11.5733L34.4488 11.6257L34.1781 11.1316L36.6681 10.8923L36.9308 11.3722ZM35.6052 9.17045C35.6916 9.29074 35.741 9.40588 35.7551 9.51672C35.7683 9.62713 35.7515 9.72766 35.703 9.8183C35.655 9.90895 35.5853 9.98585 35.4936 10.0481C35.3953 10.1152 35.2909 10.1551 35.1806 10.168C35.0704 10.1805 34.9611 10.1543 34.8522 10.0877C34.8623 10.2282 34.8487 10.3407 34.8116 10.4249C34.7742 10.5091 34.7014 10.5877 34.5952 10.6599C34.466 10.748 34.347 10.7918 34.2381 10.7922C34.1292 10.7927 34.0309 10.7609 33.9427 10.6964C33.8537 10.632 33.7686 10.5426 33.6866 10.4279L32.9226 9.36292L34.8174 8.07237L35.6052 9.17045ZM33.028 6.17779L34.4039 7.56457L34.1028 7.84811L33.5733 7.31454L32.2124 8.59692L31.8778 8.25968L33.2387 6.97729L32.7264 6.46133L33.028 6.17779ZM31.4696 5.0651C31.6419 5.08271 31.7971 5.14458 31.936 5.25026L32.6369 5.78513L32.3808 6.1039L31.761 5.6309C31.6891 5.57634 31.6098 5.54068 31.5234 5.52564C31.4365 5.51018 31.3536 5.51662 31.2734 5.54454C31.1936 5.57247 31.1262 5.62101 31.071 5.68932L31.0292 5.74174L32.0475 6.51847L31.7914 6.83724L30.773 6.06051L30.7395 6.10261C30.6932 6.16018 30.6646 6.22977 30.6531 6.31183C30.6417 6.39388 30.6536 6.47766 30.6884 6.56401C30.7237 6.65036 30.788 6.72898 30.8806 6.79943L31.4643 7.24494L31.2121 7.55898L30.5085 7.0224C30.3965 6.93691 30.3115 6.83724 30.2537 6.72425C30.1955 6.61084 30.166 6.48797 30.1638 6.35565C30.1616 6.22333 30.1867 6.08886 30.2392 5.9531C30.2916 5.81692 30.3688 5.68546 30.4702 5.55915C30.6156 5.37829 30.7757 5.2464 30.9498 5.16348C31.1244 5.08014 31.2972 5.04749 31.4696 5.0651ZM30.8347 4.42068L29.4112 4.8576L29.5607 6.30109L29.0207 5.96986L28.9422 4.56976L30.2921 4.08774L30.8347 4.42068ZM29.5276 3.61903L28.2963 5.52564L27.889 5.27604L29.1203 3.36943L29.5276 3.61903ZM25.8699 3.91976L26.9257 4.39276C27.1334 4.48599 27.2749 4.45291 27.3503 4.29352C27.3886 4.21189 27.3882 4.13757 27.3494 4.07055C27.3106 4.00353 27.2537 3.9537 27.1792 3.92019L26.6621 3.68863C26.4487 3.59283 26.3099 3.4648 26.246 3.30413C26.182 3.14303 26.1926 2.9729 26.2777 2.79289C26.3235 2.69623 26.3835 2.61761 26.4576 2.5579C26.5316 2.49818 26.6132 2.45909 26.7027 2.43889C26.7917 2.41913 26.8852 2.4157 26.9808 2.42901C27.0774 2.4419 27.1717 2.4694 27.2639 2.51064L28.4101 3.02445L28.2351 3.39521L27.1294 2.89987C27.047 2.86292 26.9751 2.8539 26.9147 2.87194C26.8534 2.89041 26.8058 2.93466 26.7719 3.00684C26.6978 3.16408 26.7551 3.28523 26.9443 3.37029L27.442 3.59326C27.5923 3.66071 27.7082 3.74061 27.7889 3.83298C27.8696 3.92492 27.9146 4.02845 27.9234 4.14187C27.9322 4.25572 27.9053 4.37901 27.8427 4.51219C27.7691 4.66814 27.6836 4.77812 27.5853 4.84256C27.4874 4.90657 27.3789 4.93364 27.2603 4.92419C27.1418 4.91474 27.0082 4.8765 26.8592 4.80991L25.6967 4.28879L25.8699 3.91976ZM25.1297 1.78932L25.4414 4.20846L24.8868 4.06067L24.8198 3.50304L23.9698 3.2762L23.6123 3.72042L23.0577 3.57264L24.591 1.64626L25.1297 1.78932ZM21.1749 1.09508L22.5371 1.27766C22.6861 1.29785 22.8069 1.34038 22.8995 1.40568C22.9916 1.47141 23.056 1.55175 23.0912 1.64755C23.1269 1.74336 23.1375 1.84517 23.1221 1.95344C23.1058 2.069 23.0652 2.17125 22.9995 2.25889C22.9343 2.3461 22.8399 2.40624 22.7161 2.43889C22.8285 2.52739 22.9043 2.61332 22.9422 2.69709C22.9801 2.78129 22.9903 2.88655 22.9722 3.01156C22.9506 3.16365 22.903 3.27878 22.8294 3.35697C22.7557 3.43516 22.6649 3.48414 22.5565 3.50304C22.4476 3.5228 22.3224 3.5228 22.18 3.5039L20.8592 3.32647L21.1749 1.09508ZM35.7648 19.4901C35.7648 27.9749 28.7068 34.853 20 34.853C11.2932 34.853 4.23524 27.9749 4.23524 19.4901C4.23524 11.0053 11.2932 4.12726 20 4.12726C28.7068 4.12726 35.7648 11.0053 35.7648 19.4901ZM17.5048 1.61061C17.5396 1.5234 17.5916 1.45036 17.66 1.39065C17.7279 1.33136 17.8077 1.2841 17.898 1.25059C17.9888 1.21623 18.085 1.1956 18.1863 1.1883L19.4441 1.09508L19.4758 1.50192L18.2626 1.5917C18.1722 1.59815 18.1048 1.62435 18.0607 1.6686C18.0162 1.71371 17.9968 1.77515 18.003 1.8542C18.0162 2.0269 18.1268 2.10552 18.3345 2.09005L18.8807 2.04967C19.0456 2.03764 19.1866 2.05268 19.3035 2.09521C19.4198 2.13731 19.5107 2.20648 19.575 2.30142C19.6394 2.39679 19.6773 2.51708 19.6888 2.66358C19.702 2.83457 19.6821 2.97161 19.6284 3.07429C19.5746 3.17653 19.4935 3.25172 19.3846 3.2994C19.2761 3.34709 19.1403 3.37716 18.9772 3.38919L17.701 3.48371L17.6697 3.07987L18.8287 2.99438C19.0566 2.97763 19.1642 2.88139 19.1505 2.70697C19.1434 2.61718 19.106 2.55231 19.0385 2.51236C18.9711 2.47197 18.8966 2.45522 18.8146 2.46123L18.2472 2.50334C18.0131 2.52052 17.8279 2.47412 17.6917 2.36414C17.5555 2.25373 17.4801 2.09993 17.4647 1.90188C17.4567 1.79448 17.47 1.69739 17.5048 1.61061ZM16.8351 1.36831L17.2165 3.59025L16.7452 3.66715L16.3639 1.44521L16.8351 1.36831ZM14.7292 1.83529L15.1061 3.09749C15.1418 3.21735 15.1828 3.31143 15.2296 3.37888C15.2763 3.44633 15.3345 3.49058 15.4041 3.5112C15.4738 3.53182 15.5593 3.52753 15.6612 3.49874L16.3066 3.31573L16.4216 3.70152L15.7097 3.90343C15.5739 3.9421 15.4504 3.95542 15.338 3.94425C15.226 3.93308 15.1264 3.90086 15.0387 3.84587C14.951 3.79131 14.8769 3.71999 14.8161 3.63149C14.7552 3.54299 14.7072 3.43903 14.6715 3.32002L14.2672 1.96632L14.7292 1.83529ZM11.8945 3.14904C11.9448 3.02617 12.025 2.91619 12.1348 2.82082C12.2441 2.72544 12.3817 2.64124 12.5466 2.56907C12.7154 2.49474 12.8728 2.45006 13.0192 2.4346C13.1655 2.41913 13.3013 2.43503 13.4261 2.48186C13.5513 2.52911 13.6676 2.6116 13.777 2.72931C13.8859 2.84745 13.9842 3.00125 14.0719 3.19071C14.3853 3.86735 14.2064 4.35367 13.5345 4.64924C13.3573 4.727 13.1915 4.77082 13.0355 4.7807C12.8798 4.79015 12.7357 4.76781 12.6026 4.71325C12.4699 4.65869 12.3526 4.57706 12.2521 4.46966C12.1511 4.3614 12.0643 4.22822 11.9907 4.06926C11.9065 3.88754 11.8571 3.71999 11.8421 3.56576C11.8262 3.41153 11.8439 3.27277 11.8945 3.14904ZM10.255 3.73761C10.4001 3.64567 10.5411 3.59326 10.6796 3.58037C10.8176 3.56748 10.9436 3.59068 11.0569 3.64996C11.1702 3.70882 11.2668 3.79818 11.3466 3.91804C11.4198 4.02802 11.4647 4.14488 11.4815 4.26946C11.4982 4.39362 11.4815 4.51262 11.4295 4.62604C11.3783 4.73946 11.291 4.83526 11.1671 4.91345L10.4393 5.37399L10.8766 6.03L10.4733 6.28519L9.21463 4.39577L10.255 3.73761ZM7.8599 4.62991L7.79862 5.24253L7.59495 5.41308L7.53587 4.90142L7.8599 4.62991ZM7.31016 6.19583C7.32294 6.06394 7.36791 5.93678 7.44594 5.81477C7.52353 5.69319 7.6311 5.57505 7.7682 5.45991C7.90883 5.3422 8.04682 5.25628 8.1826 5.20129C8.31882 5.1463 8.45328 5.12439 8.58686 5.13513C8.72088 5.1463 8.85622 5.19312 8.99508 5.27647C9.13351 5.35981 9.27238 5.48053 9.41125 5.6382C9.90764 6.20142 9.87634 6.71738 9.31691 7.18522C9.16966 7.30852 9.02286 7.39573 8.87606 7.44815C8.72969 7.4997 8.58465 7.51774 8.44138 7.50228C8.2981 7.48638 8.16232 7.44041 8.03447 7.36437C7.90619 7.28833 7.78451 7.18436 7.66769 7.05205C7.53455 6.90082 7.43845 6.75347 7.37937 6.60955C7.32074 6.46606 7.29737 6.32858 7.31016 6.19583ZM5.14074 8.13251L6.88033 8.84223L5.91355 7.25869L6.38041 6.7307L8.13146 8.20125L7.82772 8.54494L6.51884 7.44557L7.42963 8.99517L7.10605 9.3612L5.42377 8.6837L6.73265 9.78307L6.4289 10.1268L4.67785 8.65621L5.14074 8.13251ZM3.42628 10.7815C3.44788 10.6891 3.48403 10.5998 3.53429 10.5138L4.15941 9.44583L4.52311 9.64775L3.92047 10.678C3.8755 10.7544 3.86007 10.8236 3.87286 10.8842C3.88608 10.9452 3.92797 10.9954 3.9985 11.0345C4.1528 11.1204 4.28153 11.0749 4.38468 10.8988L4.65625 10.4352C4.73825 10.2952 4.82994 10.1895 4.93178 10.1195C5.03317 10.049 5.1425 10.0146 5.25933 10.0159C5.3766 10.0172 5.50003 10.0542 5.63097 10.1268C5.78394 10.2118 5.88886 10.3046 5.94617 10.4051C6.00304 10.5057 6.02156 10.6135 6.00128 10.7278C5.981 10.8421 5.93074 10.9684 5.84963 11.1071L5.21569 12.1906L4.85463 11.99L5.43038 11.0062C5.54368 10.8128 5.52208 10.6724 5.36602 10.5856C5.28578 10.5409 5.20995 10.5349 5.13766 10.5667C5.0658 10.5985 5.00981 10.6492 4.96881 10.7188L4.68711 11.2004C4.57072 11.3993 4.42745 11.523 4.25772 11.5711C4.08755 11.6192 3.91474 11.5943 3.73796 11.4959C3.64318 11.4431 3.56779 11.3778 3.51357 11.3009C3.4589 11.224 3.42584 11.1411 3.41305 11.0526C3.39939 10.9641 3.40424 10.873 3.42628 10.7815ZM2.31358 13.1895C2.32239 13.0464 2.35942 12.8926 2.42379 12.7281C2.48992 12.5592 2.56927 12.4196 2.66229 12.3083C2.75531 12.1966 2.86287 12.1154 2.98543 12.0626C3.10843 12.0102 3.25082 11.9887 3.41349 11.9977C3.57617 12.0067 3.75692 12.0488 3.95618 12.1232C4.66771 12.3882 4.8921 12.8565 4.62847 13.5276C4.55882 13.7046 4.47241 13.8493 4.36926 13.9632C4.26566 14.0766 4.14707 14.1595 4.01349 14.2124C3.87991 14.2648 3.73752 14.2871 3.58851 14.2798C3.43862 14.2721 3.2808 14.2373 3.11328 14.175C2.92195 14.1037 2.76589 14.019 2.64377 13.9194C2.52122 13.8197 2.43349 13.7093 2.38014 13.5868C2.32724 13.4657 2.30476 13.3329 2.31358 13.1895ZM1.65318 15.1326L1.82776 14.3833L2.22981 14.4723L2.06141 15.1949C2.04598 15.2606 2.04245 15.3268 2.04995 15.3946C2.05744 15.4625 2.08125 15.5287 2.12137 15.5931C2.16192 15.6571 2.22497 15.7151 2.31049 15.7675C2.39601 15.8191 2.5049 15.8599 2.6354 15.8887C2.91445 15.9506 3.12033 15.9475 3.25435 15.8797C3.38748 15.8122 3.47213 15.7014 3.50784 15.5476L3.68329 14.7936L4.08226 14.8817L3.89005 15.7074C3.84994 15.8801 3.79042 16.0214 3.71151 16.1318C3.63216 16.2427 3.53561 16.3252 3.42187 16.3784C3.30725 16.4321 3.17764 16.4609 3.03128 16.4648C2.88448 16.4682 2.72224 16.4506 2.54414 16.4111C2.34267 16.3664 2.17603 16.3028 2.04334 16.2186C1.91064 16.1349 1.80969 16.0365 1.74047 15.9226C1.6717 15.8092 1.63114 15.6868 1.6188 15.5553C1.60645 15.4247 1.61792 15.2834 1.65318 15.1326ZM0.308594 19.1017L1.66641 19.1043L2.08345 17.8451L2.5005 19.1043L3.85831 19.1017L2.75839 19.8776L3.18029 21.1351L2.08345 20.3553L0.98662 21.1351L1.40851 19.8776L0.308594 19.1017ZM13.5486 36.8502C10.9128 35.9201 8.54939 34.4362 6.60612 32.5425C3.83891 29.8459 1.92431 26.3188 1.28904 22.3779C1.40543 22.4102 1.52446 22.4355 1.64613 22.4536C2.29065 26.2724 4.15941 29.689 6.84683 32.3079C8.72705 34.1398 11.0076 35.5816 13.5495 36.4975C13.5477 36.5602 13.5464 36.6225 13.5464 36.6857C13.5464 36.7407 13.5469 36.7957 13.5486 36.8502ZM13.7276 35.2065C11.4731 34.3516 9.44784 33.049 7.76688 31.4114C5.29372 29.0012 3.56603 25.8642 2.94928 22.3578C3.06037 22.3238 3.16882 22.2839 3.27375 22.2375C3.86845 25.701 5.56792 28.7993 8.00758 31.1768C9.6471 32.7745 11.6203 34.0461 13.8171 34.8847C13.7845 34.9904 13.7545 35.0978 13.7276 35.2065ZM18.2353 36.3205C18.1912 36.565 18.0995 36.7218 17.9611 36.7905C17.8226 36.8597 17.6459 36.8756 17.4312 36.8386L16.97 36.7596C16.8664 36.7419 16.7778 36.7531 16.7042 36.7935C16.6306 36.8335 16.5869 36.8915 16.5737 36.9662L16.5296 37.2111L17.9769 37.459L17.9082 37.8387L15.9962 37.511L16.1152 36.8506C16.128 36.7789 16.1602 36.699 16.2118 36.6105C16.2629 36.5216 16.3374 36.4481 16.4349 36.3905C16.5323 36.3325 16.6504 36.3153 16.7889 36.3394L17.3249 36.4313C17.4334 36.4498 17.522 36.4459 17.5916 36.4197C17.6613 36.3935 17.7045 36.3334 17.7217 36.2389C17.7384 36.1457 17.7164 36.0743 17.6556 36.0241C17.5952 35.9734 17.5171 35.9399 17.4224 35.924L16.3467 35.7397L16.4163 35.3539L17.6185 35.5601C17.7755 35.5872 17.9042 35.6327 18.0047 35.6971C18.1052 35.7612 18.1758 35.8454 18.215 35.9502C18.2538 36.055 18.2609 36.1787 18.2353 36.3205ZM20.7472 36.9765C20.7261 37.2463 20.6701 37.4585 20.5784 37.6136C20.4867 37.7683 20.3611 37.8761 20.201 37.9358C20.0419 37.996 19.8426 38.017 19.6046 37.9994C19.3855 37.9831 19.2034 37.941 19.0588 37.8727C18.9142 37.8039 18.8018 37.7154 18.7233 37.6059C18.6444 37.4963 18.5919 37.373 18.5655 37.236C18.5395 37.0985 18.5333 36.9464 18.5461 36.7789C18.5615 36.5796 18.6074 36.4017 18.6845 36.2445C18.7612 36.0877 18.8851 35.9644 19.0557 35.875C19.2259 35.7856 19.4494 35.7508 19.7262 35.7715C19.9127 35.7852 20.0732 35.8179 20.2063 35.8698C20.3399 35.9218 20.4492 35.997 20.5348 36.0941C20.6198 36.1916 20.6802 36.3136 20.7164 36.4606C20.7525 36.6071 20.7627 36.7793 20.7472 36.9765ZM21.6342 38.0166L21.4636 35.8277L21.9278 35.7934L22.0984 37.9822L21.6342 38.0166ZM23.5418 37.8087L23.2663 35.6301L23.7283 35.5747L24.0038 37.7533L23.5418 37.8087ZM26.1009 34.9152C28.3303 34.0775 30.3326 32.7938 31.992 31.1764C34.4316 28.7989 36.1311 25.7005 36.7258 22.237C36.8307 22.283 36.9392 22.3234 37.0503 22.3573C36.4335 25.8638 34.7063 29.0008 32.2327 31.4109C30.531 33.0692 28.4766 34.383 26.1886 35.2375C26.1626 35.1292 26.1331 35.0218 26.1009 34.9152ZM33.3939 32.5425C31.4281 34.4581 29.0317 35.9545 26.3588 36.8829C26.361 36.8176 26.3623 36.7518 26.3623 36.6857C26.3623 36.6337 26.3615 36.5817 26.3601 36.5297C28.9387 35.6155 31.2509 34.1617 33.1527 32.3079C35.8401 29.689 37.7089 26.2724 38.3534 22.4536C38.4751 22.4355 38.5946 22.4102 38.7105 22.3779C38.0757 26.3192 36.1611 29.8463 33.3939 32.5425ZM37.9165 20.3553L36.8197 21.1351L37.2416 19.8776L36.1417 19.1017L37.4995 19.1043L37.9165 17.8451L38.3336 19.1043L39.6914 19.1017L38.5915 19.8776L39.0134 21.1351L37.9165 20.3553Z" fill="#002F52"/>
</svg>
